<?xml version="1.0" encoding="UTF-8"?>
<svg id="a" data-name="Ebene_1" xmlns="http://www.w3.org/2000/svg" width="553.31" height="98.828" viewBox="0 0 553.31 98.828">
  <path d="M16.021,0v16.986c0,1.029-.048,2.413-.145,4.15-.064,1.737-.177,3.844-.338,6.322h.483c1.512-2.831,3.249-4.874,5.212-6.129,1.995-1.255,4.214-1.882,6.659-1.882,4.858,0,8.702,2.509,11.533,7.528,2.863,5.019,4.294,11.903,4.294,20.654s-1.415,15.635-4.246,20.75-6.82,7.673-11.967,7.673c-2.445,0-4.488-.418-6.129-1.254-1.641-.837-3.426-2.525-5.356-5.067h-.772l-2.365,5.356H0V0h16.021ZM22.053,33.2c-2.123,0-3.667,1.013-4.633,3.04-.933,1.995-1.399,5.163-1.399,9.507v3.137c0,4.89.483,8.429,1.448,10.616.965,2.156,2.525,3.233,4.681,3.233,3.571,0,5.356-5.099,5.356-15.297,0-9.49-1.818-14.236-5.453-14.236ZM70.24,19.447c5.437,0,9.731,1.625,12.884,4.874,3.185,3.249,4.777,8.22,4.777,14.911v35.854h-11.533l-2.702-7.238h-.29c-1.769,2.767-3.699,4.826-5.791,6.177-2.059,1.351-4.809,2.027-8.252,2.027-3.121,0-5.63-.852-7.528-2.558-1.898-1.705-3.281-3.909-4.15-6.611-.837-2.702-1.254-5.533-1.254-8.493,0-5.855,1.56-10.23,4.681-13.125,3.153-2.895,7.721-4.456,13.705-4.681l7.142-.289v-1.399c0-4.472-1.753-6.708-5.26-6.708-3.056,0-6.981,1.351-11.774,4.053l-4.15-11.871c2.67-1.576,5.646-2.783,8.927-3.619,3.281-.869,6.804-1.303,10.568-1.303ZM71.929,50.669l-2.992.193c-4.343.193-6.515,2.477-6.515,6.852,0,3.732,1.287,5.598,3.861,5.598,1.576,0,2.911-.708,4.005-2.123,1.094-1.448,1.641-3.346,1.641-5.694v-4.826ZM110.753,0v16.986c0,1.029-.048,2.413-.145,4.15-.064,1.737-.177,3.844-.338,6.322h.482c1.512-2.831,3.249-4.874,5.212-6.129,1.995-1.255,4.214-1.882,6.659-1.882,4.858,0,8.702,2.509,11.533,7.528,2.863,5.019,4.295,11.903,4.295,20.654s-1.416,15.635-4.246,20.75c-2.831,5.115-6.82,7.673-11.968,7.673-2.445,0-4.488-.418-6.128-1.254-1.641-.837-3.426-2.525-5.356-5.067h-.772l-2.364,5.356h-12.884V0h16.021ZM116.785,33.2c-2.123,0-3.668,1.013-4.633,3.04-.933,1.995-1.399,5.163-1.399,9.507v3.137c0,4.89.482,8.429,1.448,10.616.965,2.156,2.525,3.233,4.681,3.233,3.571,0,5.356-5.099,5.356-15.297,0-9.49-1.817-14.236-5.453-14.236ZM138.865,20.412h16.793l5.743,23.742c.386,1.673.74,3.346,1.062,5.019.322,1.641.498,3.024.53,4.15h.386c.097-1.094.274-2.349.531-3.764.257-1.448.643-3.185,1.158-5.212l5.308-23.935h16.6l-16.504,58.149c-2.123,7.464-4.729,12.707-7.818,15.731-3.056,3.024-7.061,4.536-12.016,4.536-1.287,0-2.509-.08-3.667-.241-1.158-.161-2.252-.354-3.281-.579v-14.042c1.255.418,2.574.628,3.957.628,1.319,0,2.364-.225,3.137-.676.804-.418,1.512-1.303,2.123-2.654.643-1.319,1.367-3.314,2.172-5.984l.289-.965-16.504-53.902ZM216.681,19.447c4.729,0,8.413,1.753,11.051,5.26,2.638,3.507,3.957,8.445,3.957,14.815v35.565h-16.021v-30.45c0-3.603-.289-6.321-.869-8.155-.579-1.866-1.866-2.799-3.86-2.799-2.252,0-3.78,1.191-4.585,3.571-.772,2.381-1.158,6.66-1.158,12.836v24.997h-16.021V20.412h12.546l1.786,6.756h.917c2.445-5.147,6.53-7.721,12.257-7.721ZM259.897,19.447c5.437,0,9.732,1.625,12.884,4.874,3.185,3.249,4.777,8.22,4.777,14.911v35.854h-11.533l-2.702-7.238h-.289c-1.769,2.767-3.7,4.826-5.791,6.177-2.059,1.351-4.81,2.027-8.252,2.027-3.12,0-5.63-.852-7.528-2.558-1.898-1.705-3.281-3.909-4.15-6.611-.837-2.702-1.255-5.533-1.255-8.493,0-5.855,1.56-10.23,4.681-13.125,3.153-2.895,7.721-4.456,13.705-4.681l7.142-.289v-1.399c0-4.472-1.753-6.708-5.26-6.708-3.056,0-6.981,1.351-11.774,4.053l-4.15-11.871c2.67-1.576,5.646-2.783,8.927-3.619,3.281-.869,6.804-1.303,10.568-1.303ZM261.586,50.669l-2.992.193c-4.343.193-6.515,2.477-6.515,6.852,0,3.732,1.287,5.598,3.86,5.598,1.576,0,2.912-.708,4.005-2.123,1.094-1.448,1.641-3.346,1.641-5.694v-4.826ZM337.954,19.447c9.78,0,14.67,6.691,14.67,20.074v35.565h-16.021v-30.353c0-7.367-1.448-11.051-4.343-11.051-2.252,0-3.78,1.239-4.584,3.716-.772,2.445-1.158,6.305-1.158,11.581v26.107h-16.021v-30.353c0-7.367-1.415-11.051-4.246-11.051-2.22,0-3.748,1.319-4.585,3.957-.836,2.638-1.254,6.949-1.254,12.933v24.514h-16.021V20.412h12.547l1.786,6.756h.917c1.03-2.541,2.702-4.456,5.019-5.742,2.316-1.319,5.051-1.979,8.203-1.979,3.217,0,5.775.676,7.673,2.027,1.898,1.351,3.266,3.072,4.102,5.163h1.061c1.255-2.284,2.879-4.054,4.874-5.308,2.027-1.255,4.488-1.882,7.383-1.882ZM378.807,19.544c6.53,0,11.595,2.155,15.198,6.466,3.635,4.279,5.453,10.423,5.453,18.434v8.397h-26.105c0,3.667.755,6.337,2.266,8.01,1.546,1.641,3.893,2.461,7.045,2.461,2.51,0,4.843-.322,6.999-.965s4.486-1.737,6.996-3.281v13.077c-2.347,1.383-4.874,2.381-7.575,2.992-2.704.611-5.63.917-8.785.917-7.913,0-13.67-2.397-17.274-7.19-3.572-4.793-5.358-11.742-5.358-20.846s1.772-16.166,5.309-21.088c3.572-4.922,8.849-7.383,15.83-7.383ZM379.192,31.897c-1.673,0-3.071.724-4.197,2.172-1.094,1.448-1.641,3.957-1.641,7.528h11.291c0-3.475-.498-5.952-1.497-7.432-.995-1.512-2.315-2.268-3.957-2.268ZM435.969,58.293c0,5.887-1.659,10.327-4.97,13.319-3.283,2.96-7.85,4.44-13.705,4.44-2.672,0-5.294-.225-7.867-.676-2.573-.45-5.128-1.239-7.673-2.364v-15.104c1.998,1.191,4.183,2.236,6.565,3.137,2.411.869,4.843,1.303,7.285,1.303,2.961,0,4.44-1.062,4.44-3.185,0-.611-.159-1.191-.484-1.737-.289-.579-1.013-1.271-2.171-2.075-1.158-.804-3.007-1.834-5.549-3.088-6.787-3.41-10.183-8.976-10.183-16.697,0-5.083,1.546-9.04,4.634-11.871,3.088-2.831,7.479-4.247,13.172-4.247,2.831,0,5.503.402,8.012,1.206,2.506.772,5.065,1.914,7.67,3.426l-3.907,12.16c-1.641-1.094-3.378-2.043-5.213-2.847-1.832-.804-3.699-1.206-5.598-1.206-2.217,0-3.328.852-3.328,2.558,0,.579.145,1.11.434,1.593.321.482,1.031,1.094,2.125,1.834,1.094.708,2.799,1.753,5.114,3.137,3.346,1.866,6.046,4.118,8.107,6.756,2.058,2.606,3.088,6.016,3.088,10.23Z" fill="#5b5b5b"/>
  <path d="M439.855,67.076c0-2.96.791-5.244,2.365-6.852,1.609-1.609,3.893-2.413,6.854-2.413,2.862,0,5.051.804,6.562,2.413,1.542,1.608,2.315,3.892,2.315,6.852,0,2.927-.787,5.196-2.365,6.804-1.542,1.608-3.713,2.413-6.512,2.413-2.834,0-5.086-.804-6.759-2.413-1.638-1.608-2.46-3.877-2.46-6.804ZM478.92,76.051c-5.178,0-9.184-2.558-12.015-7.673-2.831-5.115-4.246-12.032-4.246-20.75s1.398-15.635,4.197-20.654c2.834-5.019,6.692-7.528,11.584-7.528,2.541,0,4.776.627,6.706,1.882,1.962,1.255,3.685,3.298,5.164,6.129h.484c-.131-2.477-.244-4.584-.339-6.322-.095-1.737-.145-3.121-.145-4.15V0h16.021v75.086h-12.837l-2.315-5.356h-.868c-1.737,2.284-3.41,3.909-5.019,4.874-1.609.965-3.731,1.447-6.371,1.447ZM484.183,62.733c2.185,0,3.748-1.078,4.68-3.233.964-2.188,1.447-5.726,1.447-10.616v-3.137c0-4.343-.484-7.512-1.447-9.507-.932-2.027-2.46-3.04-4.585-3.04-3.635,0-5.453,4.745-5.453,14.236,0,10.198,1.786,15.297,5.358,15.297ZM532.658,19.544c6.53,0,11.598,2.155,15.202,6.466,3.632,4.279,5.45,10.423,5.45,18.434v8.397h-26.105c0,3.667.755,6.337,2.27,8.01,1.542,1.641,3.89,2.461,7.045,2.461,2.51,0,4.839-.322,6.996-.965,2.157-.643,4.49-1.737,6.996-3.281v13.077c-2.347,1.383-4.871,2.381-7.575,2.992-2.704.611-5.63.917-8.782.917-7.913,0-13.674-2.397-17.277-7.19-3.572-4.793-5.354-11.742-5.354-20.846s1.768-16.166,5.305-21.088c3.572-4.922,8.849-7.383,15.83-7.383ZM533.043,31.897c-1.673,0-3.071.724-4.197,2.172-1.094,1.448-1.641,3.957-1.641,7.528h11.291c0-3.475-.498-5.952-1.497-7.432-.995-1.512-2.315-2.268-3.957-2.268Z" fill="#a67bd2"/>
</svg>