<svg width="133" height="27" viewBox="0 0 133 27" fill="none" xmlns="http://www.w3.org/2000/svg">
<path d="M0.0654297 0.980469H3.90332C4.75293 0.980469 5.63184 1.03418 6.54004 1.1416C7.44824 1.24902 8.29297 1.48828 9.07422 1.85938C9.85547 2.2207 10.4854 2.78223 10.9639 3.54395C11.4521 4.30566 11.6963 5.34082 11.6963 6.64941V7.86523C11.6963 9.19336 11.3789 10.2773 10.7441 11.1172C10.1191 11.9473 9.4209 12.5039 8.64941 12.7871V12.9043C9.78223 13.3535 10.6416 13.998 11.2275 14.8379C11.8135 15.6777 12.1064 16.8398 12.1064 18.3242V19.5986C12.1064 20.9561 11.8867 22.0596 11.4473 22.9092C11.0176 23.749 10.4268 24.3936 9.6748 24.8428C8.92285 25.292 8.06348 25.5996 7.09668 25.7656C6.12988 25.9219 5.11426 26 4.0498 26H0.0654297V0.980469ZM4.51855 11.6885C5.53418 11.6885 6.34473 11.4395 6.9502 10.9414C7.55566 10.4336 7.8584 9.59375 7.8584 8.42188V7.39648C7.8584 6.23438 7.61426 5.33594 7.12598 4.70117C6.6377 4.06641 5.76855 3.74902 4.51855 3.74902H3.85938V11.6885H4.51855ZM4.87012 23.2314C5.88574 23.2314 6.69141 22.9824 7.28711 22.4844C7.89258 21.9766 8.19531 21.1367 8.19531 19.9648V18.0166C8.19531 16.8447 7.95117 15.9463 7.46289 15.3213C6.98438 14.6865 6.12012 14.3691 4.87012 14.3691H3.85938V23.2314H4.87012ZM17.0512 0.980469H21.3285L26.0014 26H22.1928L21.5043 21.5176H16.8754L16.2162 26H12.393L17.0512 0.980469ZM21.0648 18.6611L19.2777 6.13672H19.1166L17.3148 18.6611H21.0648ZM27.3865 0.980469H31.2244C32.074 0.980469 32.9529 1.03418 33.8611 1.1416C34.7693 1.24902 35.6141 1.48828 36.3953 1.85938C37.1766 2.2207 37.8064 2.78223 38.285 3.54395C38.7732 4.30566 39.0174 5.34082 39.0174 6.64941V7.86523C39.0174 9.19336 38.7 10.2773 38.0652 11.1172C37.4402 11.9473 36.742 12.5039 35.9705 12.7871V12.9043C37.1033 13.3535 37.9627 13.998 38.5486 14.8379C39.1346 15.6777 39.4275 16.8398 39.4275 18.3242V19.5986C39.4275 20.9561 39.2078 22.0596 38.7684 22.9092C38.3387 23.749 37.7479 24.3936 36.9959 24.8428C36.2439 25.292 35.3846 25.5996 34.4178 25.7656C33.451 25.9219 32.4354 26 31.3709 26H27.3865V0.980469ZM31.8396 11.6885C32.8553 11.6885 33.6658 11.4395 34.2713 10.9414C34.8768 10.4336 35.1795 9.59375 35.1795 8.42188V7.39648C35.1795 6.23438 34.9354 5.33594 34.4471 4.70117C33.9588 4.06641 33.0896 3.74902 31.8396 3.74902H31.1805V11.6885H31.8396ZM32.1912 23.2314C33.2068 23.2314 34.0125 22.9824 34.6082 22.4844C35.2137 21.9766 35.5164 21.1367 35.5164 19.9648V18.0166C35.5164 16.8447 35.2723 15.9463 34.784 15.3213C34.3055 14.6865 33.4412 14.3691 32.1912 14.3691H31.1805V23.2314H32.1912ZM44.2258 17.2256L39.3332 0.980469H43.1564L46.0568 13.0508H46.2326L49.133 0.980469H52.9416L48.0197 17.2256V26H44.2258V17.2256ZM59.8428 0.980469H62.8457L68.9541 17.4307H69.042C69.0029 16.9131 68.9492 16.3369 68.8809 15.7021C68.8223 15.0576 68.7686 14.2861 68.7197 13.3877C68.6709 12.4893 68.6465 11.3955 68.6465 10.1064V0.980469H72.0156V26H68.9834L62.9043 9.98926H62.7871C62.8359 10.5752 62.8896 11.2148 62.9482 11.9082C63.0068 12.6016 63.0605 13.4756 63.1094 14.5303C63.1582 15.585 63.1826 16.957 63.1826 18.6465V26H59.8428V0.980469ZM78.059 0.980469H82.3363L87.0092 26H83.2006L82.5121 21.5176H77.8832L77.224 26H73.4008L78.059 0.980469ZM82.0727 18.6611L80.2855 6.13672H80.1244L78.3227 18.6611H82.0727ZM88.3943 0.980469H93.0965L95.6014 11.1025C95.865 12.167 96.0701 13.1924 96.2166 14.1787C96.3631 15.1553 96.4998 16.0684 96.6268 16.918H96.7439C96.8807 16.0684 97.0174 15.1553 97.1541 14.1787C97.3006 13.1924 97.5057 12.167 97.7693 11.1025L100.245 0.980469H104.947V26H101.549V17.7236C101.549 16.0244 101.568 14.4277 101.607 12.9336C101.656 11.4395 101.71 10.1309 101.768 9.00781C101.837 7.88477 101.895 7.03027 101.944 6.44434H101.666L97.8865 22.7773H95.4842L91.6756 6.44434H91.3973C91.4559 7.03027 91.5145 7.88477 91.573 9.00781C91.6316 10.1309 91.6805 11.4395 91.7195 12.9336C91.7684 14.4277 91.7928 16.0244 91.7928 17.7236V26H88.3943V0.980469ZM108.178 0.980469H117.743V3.96875H111.972V11.4541H116.498V14.4424H111.972V23.0117H117.743V26H108.178V0.980469ZM118.147 20.9316C118.147 20.3945 118.176 19.8965 118.235 19.4375C118.303 18.9785 118.401 18.4902 118.528 17.9727H121.472V19.0859C121.472 20.4336 121.677 21.4688 122.088 22.1914C122.498 22.9043 123.128 23.2607 123.977 23.2607C125.442 23.2607 126.174 22.543 126.174 21.1074C126.174 20.5508 126.052 19.9648 125.808 19.3496C125.574 18.7344 125.11 17.9824 124.417 17.0938L120.462 12.1279C119.768 11.2295 119.226 10.3311 118.836 9.43262C118.455 8.53418 118.264 7.5332 118.264 6.42969C118.264 4.76953 118.777 3.41211 119.802 2.35742C120.838 1.29297 122.268 0.760742 124.094 0.760742C125.569 0.760742 126.726 1.0293 127.566 1.56641C128.406 2.09375 128.997 2.7627 129.338 3.57324C129.69 4.38379 129.866 5.21387 129.866 6.06348C129.866 6.60059 129.822 7.09863 129.734 7.55762C129.656 8.00684 129.563 8.50488 129.456 9.05176H126.526V7.85059C126.526 6.53223 126.316 5.5166 125.896 4.80371C125.476 4.09082 124.876 3.73438 124.094 3.73438C123.381 3.73438 122.839 3.93457 122.468 4.33496C122.107 4.72559 121.926 5.25293 121.926 5.91699C121.926 6.4834 122.044 7.00098 122.278 7.46973C122.512 7.92871 122.81 8.40234 123.171 8.89062L127.581 14.4863C128.391 15.5312 129.006 16.5273 129.426 17.4746C129.856 18.4121 130.071 19.457 130.071 20.6094C130.071 22.3379 129.519 23.71 128.416 24.7256C127.312 25.7314 125.842 26.2344 124.006 26.2344C122.503 26.2344 121.321 25.9805 120.462 25.4727C119.612 24.9551 119.011 24.291 118.66 23.4805C118.318 22.6699 118.147 21.8203 118.147 20.9316Z" fill="#424242"/>
</svg>
