<svg role="presentation" tabindex="-1" width="20px" height="20px" viewBox="0 0 20 20" version="1.1"><title>Heart</title><path class="stroke" d="M6.45864281,3 C4.39175113,2.99980769 2.49613657,4.53932692 2.10490764,6.66115385 C1.85044979,8.04134615 2.07011245,9.375 2.64216068,10.6405769 C3.25806432,12.0029808 4.17478727,13.1528846 5.21016081,14.1933654 C6.57565486,15.5658654 8.12100435,16.7190385 9.6645225,17.8698077 C9.78028154,17.9561538 9.88900444,18 9.99849842,18 C10.1159924,18 10.2344502,17.9495192 10.3637996,17.8469231 C11.5681371,16.8907692 12.786354,15.9518269 13.9646673,14.9628846 C15.2763782,13.8619231 16.358306,12.5425962 17.1720892,11.0167308 C17.8953663,9.66038462 18.1742097,8.19298077 17.891029,6.66259615 C17.4854386,4.47105769 15.5643782,3.00038462 13.5120408,3.00038462 C12.9757516,3.00038462 12.4306913,3.10076923 11.9012455,3.31490385 C11.1442334,3.62105769 10.5212936,4.10826923 10.0007153,4.775 C9.95936589,4.72596154 9.93392011,4.69663462 9.90924541,4.66663462 C9.13642609,3.72576923 8.1580164,3.17730769 6.96360669,3.03086538 C6.79473921,3.01009615 6.62596812,3 6.45864281,3 M6.45854642,4.15384615 C6.57999221,4.15384615 6.70249825,4.16134615 6.82249825,4.17605769 C7.71175131,4.28509615 8.4287634,4.68480769 9.01488391,5.39826923 C9.03454656,5.42211538 9.05449837,5.44567308 9.07994416,5.47567308 L9.11628151,5.51846154 L10.0359924,6.60740385 L10.9131973,5.48403846 C11.3159925,4.96817308 11.7812455,4.60846154 12.3357516,4.38423077 C12.713101,4.23163462 13.1087637,4.15423077 13.5120408,4.15423077 C14.2574866,4.15423077 14.9945469,4.42028846 15.5874144,4.90336538 C16.2051494,5.40663462 16.6084265,6.08740385 16.7535831,6.87211538 C16.9790289,8.09009615 16.7762337,9.30221154 16.1509807,10.4747115 C15.4171975,11.8504808 14.431077,13.0634615 13.2199926,14.08 C12.3578239,14.8036538 11.4518961,15.5174038 10.5758479,16.2075962 C10.3800888,16.3619231 10.1842334,16.5161538 9.98857071,16.6707692 C8.62220919,15.6499038 7.23252237,14.5880769 6.03098014,13.3804808 C4.92900417,12.2729808 4.187221,11.2516346 3.69661856,10.16625 C3.19608842,9.05903846 3.04331732,7.95 3.24244987,6.86990385 C3.52794386,5.32134615 4.91059453,4.15375 6.45854642,4.15384615 L6.45854642,4.15384615" id="Heart"></path><path class="fill" d="M6.45864281,3 C4.39175113,2.99980769 2.49613657,4.53932692 2.10490764,6.66115385 C1.85044979,8.04134615 2.07011245,9.375 2.64216068,10.6405769 C3.25806432,12.0029808 4.17478727,13.1528846 5.21016081,14.1933654 C6.57565486,15.5658654 8.12100435,16.7190385 9.6645225,17.8698077 C9.78028154,17.9561538 9.88900444,18 9.99849842,18 C10.1159924,18 10.2344502,17.9495192 10.3637996,17.8469231 C11.5681371,16.8907692 12.786354,15.9518269 13.9646673,14.9628846 C15.2763782,13.8619231 16.358306,12.5425962 17.1720892,11.0167308 C17.8953663,9.66038462 18.1742097,8.19298077 17.891029,6.66259615 C17.4854386,4.47105769 15.5643782,3.00038462 13.5120408,3.00038462 C12.9757516,3.00038462 12.4306913,3.10076923 11.9012455,3.31490385 C11.1442334,3.62105769 10.5212936,4.10826923 10.0007153,4.775 C9.95936589,4.72596154 9.93392011,4.69663462 9.90924541,4.66663462 C9.13642609,3.72576923 8.1580164,3.17730769 6.96360669,3.03086538 C6.79473921,3.01009615 6.62596812,3 6.45864281,3"></path></svg>
